<svg width="64" height="64" viewBox="0 0 64 64" fill="none" xmlns="http://www.w3.org/2000/svg">
<path d="M49 40.14C48.386 40.149 47.7829 40.3032 47.24 40.59C46.7267 40.3197 46.1586 40.1699 45.5788 40.1519C44.999 40.1338 44.4227 40.2481 43.8937 40.486C43.3646 40.7238 42.8967 41.0791 42.5253 41.5247C42.154 41.9704 41.8891 42.4948 41.7506 43.0581C41.6121 43.6214 41.6037 44.2089 41.7261 44.7759C41.8485 45.3429 42.0984 45.8746 42.4569 46.3307C42.8153 46.7867 43.273 47.1552 43.795 47.408C44.3171 47.6609 44.8899 47.7915 45.47 47.79C46.089 47.7859 46.6973 47.6278 47.24 47.33C47.7805 47.6243 48.3846 47.7822 49 47.79C49.5188 47.8165 50.0375 47.7373 50.5247 47.557C51.0118 47.3768 51.4572 47.0993 51.8338 46.7415C52.2103 46.3837 52.5102 45.9531 52.7151 45.4758C52.92 44.9985 53.0256 44.4844 53.0256 43.965C53.0256 43.4456 52.92 42.9316 52.7151 42.4542C52.5102 41.9769 52.2103 41.5463 51.8338 41.1885C51.4572 40.8307 51.0118 40.5532 50.5247 40.373C50.0375 40.1927 49.5188 40.1135 49 40.14V40.14Z" fill="#ffffff" id="id_103"></path>
<path d="M56 10.75H8C6.60761 10.75 5.27226 11.3031 4.28769 12.2877C3.30312 13.2723 2.75 14.6076 2.75 16V48C2.75 49.3924 3.30312 50.7277 4.28769 51.7123C5.27226 52.6969 6.60761 53.25 8 53.25H56C57.3924 53.25 58.7277 52.6969 59.7123 51.7123C60.6969 50.7277 61.25 49.3924 61.25 48V16C61.25 14.6076 60.6969 13.2723 59.7123 12.2877C58.7277 11.3031 57.3924 10.75 56 10.75V10.75ZM5.25 16C5.25 15.2707 5.53973 14.5712 6.05546 14.0555C6.57118 13.5397 7.27065 13.25 8 13.25H56C56.7293 13.25 57.4288 13.5397 57.9445 14.0555C58.4603 14.5712 58.75 15.2707 58.75 16V17.64H5.25V16ZM58.75 48C58.75 48.7293 58.4603 49.4288 57.9445 49.9445C57.4288 50.4603 56.7293 50.75 56 50.75H8C7.27065 50.75 6.57118 50.4603 6.05546 49.9445C5.53973 49.4288 5.25 48.7293 5.25 48V25.5H58.75V48Z" fill="#ffffff" id="id_104"></path>
</svg>